<svg id="Capa_1" data-name="Capa 1" xmlns="http://www.w3.org/2000/svg" xmlns:xlink="http://www.w3.org/1999/xlink" viewBox="0 0 666 291.47"><defs><style>.cls-1{fill:none;}.cls-2,.cls-4{fill:#282e69;}.cls-3,.cls-5{fill:#e52521;}.cls-4{font-size:50.23px;font-family:ArialMT, Arial;}.cls-5{font-size:42.73px;}.cls-6{clip-path:url(#clip-path);}.cls-7{fill:#e5291f;}</style><clipPath id="clip-path"><rect class="cls-1" x="10.32" width="646.08" height="161.52"/></clipPath></defs><title>logos</title><g id="Portal_de_Matemática" data-name="Portal de Matemática"><path class="cls-2" d="M236.87,146.47c.49.45.11.74-.19,1.05-2.6,2.7-5.19,5.41-7.8,8.1a1,1,0,0,0-.28,1.17q.9,2.51,1.71,5.06a1.28,1.28,0,0,0,.9,1,11.6,11.6,0,0,1,7.35,7c2,5.22.88,11.18-4.17,14.84a12.82,12.82,0,0,1-14,.65c-5.77-3.8-7.54-10.65-4.6-16.36a.83.83,0,0,0,0-1c-.92-1.47-1.8-3-2.68-4.46a.71.71,0,0,0-.77-.43q-4.49.6-9,1.16a.8.8,0,0,0-.67.47,10.57,10.57,0,0,1-8.29,5.46,17.41,17.41,0,0,1-3.46.15,1.14,1.14,0,0,0-.45,0c-2.06.62-3.71-.27-5.22-1.49-.74-.6-.49-1.34.42-1.6a5.47,5.47,0,0,1,5.06,1.19,2.07,2.07,0,0,0,1.73.48,16.87,16.87,0,0,0,6.63-1.82,4.64,4.64,0,0,0,2.22-2.65c-.92.13-1.8.25-2.69.35-.31,0-.68.2-.86-.21s.16-.58.43-.77l18.7-13a5.62,5.62,0,0,1,2.22-.64q8.46-1.84,16.93-3.66c.06,0,.11-.08.17-.12Z"/><path class="cls-2" d="M162,252.78c-1.27.75-2.53,1.52-3.81,2.24a93.33,93.33,0,0,1-16.1,6.89,101,101,0,0,1-19,4.44,162,162,0,0,1-24.32,1.23l-.9,0s0-.07-.22-.3c19.06-3.77,36.77-10.55,52.56-22.2-8.61-1.63-16.68-4.53-23.85-9.76.48.05.92.12,1.37.14a78.78,78.78,0,0,0,11.07-.53,31.6,31.6,0,0,0,6.82-1.16,29.63,29.63,0,0,0,10.73-6.24,58.9,58.9,0,0,0,11.43-14.33,115.9,115.9,0,0,1,9.12-13.3,46.66,46.66,0,0,1,17.12-13,57.63,57.63,0,0,1,12.42-4,5.68,5.68,0,0,1,2.72.47,23.61,23.61,0,0,1,6,2.68,52.68,52.68,0,0,0,14.1,6.51A28.32,28.32,0,0,0,249,190.93a81.1,81.1,0,0,0,13.57-7.63,40.14,40.14,0,0,0,5.92-5.13c.3-.31.26-.48,0-.8a40.74,40.74,0,0,0-11.39-9.64c-.18-.1-.65-.13-.24-.54a16.43,16.43,0,0,1,5.87-4.38,19.13,19.13,0,0,1,4-.81c.51-.06.7.15.85.6a63.67,63.67,0,0,0,5.44,12,41.63,41.63,0,0,0,7.87,9.18,29.45,29.45,0,0,0,3.61,3.09c.38.26.16.45,0,.67a7.86,7.86,0,0,1-5.95,4.49c-1.07.17-2.14.31-3.2.49-.64.11-.9-.09-.95-.76a25.29,25.29,0,0,0-2-7.93,22.82,22.82,0,0,0-2.62-4.57c-.49.94-.92,1.82-1.41,2.67a48.44,48.44,0,0,1-10.8,12.3,41.74,41.74,0,0,1-8.33,5.93,32.26,32.26,0,0,1-12,3.11,59.41,59.41,0,0,1-18.3-1.89,2.68,2.68,0,0,0-1.89.16,43,43,0,0,0-8,4.61,18.4,18.4,0,0,0-5.46,7.56,25.59,25.59,0,0,0-1.32,3.84,100,100,0,0,1,10.08,1.7c-.56.2-1.11.45-1.69.6a42.37,42.37,0,0,0-5.85,2,139.82,139.82,0,0,0-13.37,6.52,107,107,0,0,0-14.15,9.32,82,82,0,0,0-9.38,8.69c-1.94,2.07-3.86,4.15-5.74,6.28-.1.07-.18.07-.3.16Z"/><path class="cls-2" d="M129.18,204.59a33.92,33.92,0,0,1,4.16-3.59,113.74,113.74,0,0,1,9.87-7.44,96.24,96.24,0,0,1,16.44-8.12,73.6,73.6,0,0,1,15-4.47,71.14,71.14,0,0,1,14.43-.88,95,95,0,0,1,14.06,1.71c.13,0,.31,0,.37.22-1.23.21-2.45.41-3.67.64A57.17,57.17,0,0,0,186.93,187c-1.69.77-3.33,1.64-5,2.48a1.64,1.64,0,0,1-.78.22c-7.71-.41-15.16,1.12-22.53,3.09a136,136,0,0,0-23.06,8.9c-2.11,1-4.2,2-6.3,3.05Z"/><path class="cls-2" d="M211.48,240.82a22.46,22.46,0,0,1,3.6-1.55c1.83-.79,3.75-1.37,5.64-2,1.44-.49,2.93-.88,4.4-1.31,1-.29,2.08-.59,3.13-.84a1.6,1.6,0,0,1,1.1,0A17.45,17.45,0,0,1,227,241a60.09,60.09,0,0,1-11.43,13.55,192.78,192.78,0,0,1-20.89,16.21c-.13.1-.25.27-.49.17,1.36-1.85,2.72-3.7,4.06-5.55a120.82,120.82,0,0,0,7.54-11.18A61,61,0,0,0,211.48,240.82Z"/><path class="cls-2" d="M129.27,204.72c-.07,0-.16.11-.21,0s.08-.08.12-.12Z"/><g id="Franja_roja" data-name="Franja roja"><path class="cls-3" d="M211.55,241.53c-2.85,1.2-5.6,2.59-8.34,4a122.06,122.06,0,0,0-20.48,13,84.76,84.76,0,0,0-9.61,9.24c-3,3.29-6,6.54-8.78,10a.66.66,0,0,1-.38.25c.59-.94,1.17-1.89,1.79-2.82s1.32-1.89,2-2.84c2.42-3.4,4.78-6.84,7.45-10a80.49,80.49,0,0,1,13.38-12.64,122.87,122.87,0,0,1,21.54-13.48,77.1,77.1,0,0,1,17.5-5.71,114.28,114.28,0,0,1,13.64-2,142.67,142.67,0,0,1,18.26-.32,141.45,141.45,0,0,0,17.35.06,51.18,51.18,0,0,0,15.36-3.18,35.5,35.5,0,0,0,9.91-6.21,23.47,23.47,0,0,0,6.56-8.71c1.17-2.83,2.45-5.61,3.45-8.51a37.91,37.91,0,0,0,2.09-12.66c0-1.6,0-3.21.07-4.82a23.39,23.39,0,0,1,.63,4c.31,3.49.61,7,.6,10.47a30.84,30.84,0,0,1-3.87,14.56,46.36,46.36,0,0,1-5.7,8.31c-3.17,3.69-7.3,5.92-11.81,7.5a63.51,63.51,0,0,1-15.87,3.06c-6.51.55-13,.21-19.54.17a126.33,126.33,0,0,0-19,1.27c-3.28.48-6.53,1.13-9.76,1.86-.25.05-1.28.28-1.63.37-1,.25-2.1.54-3.14.84-1.47.43-3,.82-4.4,1.31-1.89.65-3.8,1.22-5.64,2A23.66,23.66,0,0,0,211.55,241.53Z"/><path class="cls-3" d="M162.33,252.51s3.8-4.22,5.74-6.29a83.73,83.73,0,0,1,9.37-8.69,108.1,108.1,0,0,1,14.16-9.32A135.2,135.2,0,0,1,205,221.7a41.12,41.12,0,0,1,5.85-2,17,17,0,0,0,1.69-.6,33.12,33.12,0,0,0,3.94-.92A99.31,99.31,0,0,1,229.83,216a97.15,97.15,0,0,1,19.44,0c4.07.41,8.13,1,12.23,1.24a90.49,90.49,0,0,0,14.54-.12,49.68,49.68,0,0,0,10.26-2,27.27,27.27,0,0,0,11.22-6.79,39.67,39.67,0,0,0,8.8-12.39,29.74,29.74,0,0,0,2.15-9.43c.25-3.11.59-6.21.54-9.33a10.64,10.64,0,0,1,.54,3.87c0,2-.1,3.92-.29,5.88a55.72,55.72,0,0,1-1.19,9.18,30.25,30.25,0,0,1-5.15,10.4,40.09,40.09,0,0,1-8.59,8.71,28.86,28.86,0,0,1-10.67,4.53A73.15,73.15,0,0,1,262.73,221c-5.91-.36-11.76-1.28-17.67-1.51a128.21,128.21,0,0,0-14.93.16,95.7,95.7,0,0,0-15.7,2.46,82.45,82.45,0,0,0-13.9,4.88,139.86,139.86,0,0,0-15.88,8.27,93.77,93.77,0,0,0-18.65,15c-3.51,3.63-7,7.23-10.21,11.17a16.36,16.36,0,0,1-1.76,2.19C156,260.69,162.33,252.51,162.33,252.51Z"/><path class="cls-3" d="M158.6,267.88C174.45,243,197.39,229,226.09,223.81a6,6,0,0,1-1.91.75c-.67.23-1.35.41-2,.62-11.81,3.76-23.21,8.43-33.71,15.09A89.11,89.11,0,0,0,173,252.75c-3.76,3.78-7.58,7.48-11.18,11.42C160.72,265.38,159.79,266.75,158.6,267.88Z"/><path class="cls-3" d="M307.71,227.14c1.09-1.74,2.15-3.44,3.21-5.12a57,57,0,0,0,7-17.72,32.56,32.56,0,0,0,.91-10.31,34.79,34.79,0,0,0-3.57-12.46,3,3,0,0,1-.22-.39.33.33,0,0,1,0-.28c.11-.14.22,0,.31,0a1.24,1.24,0,0,1,.18.14c2.25,2.64,4.54,5.25,5.65,8.64a28.88,28.88,0,0,1,1,10.14c-.28,7.08-3.59,12.92-7.44,18.55a84.15,84.15,0,0,1-6.36,8.12A1.87,1.87,0,0,1,307.71,227.14Z"/></g><text class="cls-4" transform="translate(335.01 200.6)">Portal<tspan class="cls-5"><tspan x="0" y="51.28">de Matemática</tspan></tspan></text></g><g class="cls-6"><path class="cls-7" d="M119.28,1.16c.52-1-.14-1.52-1.23-.85a1.93,1.93,0,0,1-1.9.45c-.42-.48-.89-1-1.58-.62s-.3,1-.2,1.54c.06.31.12.61.17.91a.67.67,0,0,1,.26.68c1.07,1.65,1,1.95-.89,3-.61-.38-1.33-.79-1.79.05a1.62,1.62,0,0,0,.5,2.37,4.07,4.07,0,0,0,.92,2c-.07.61.45,1.51-.68,1.64-.88.1-1.22-.47-1.3-1.27a1.22,1.22,0,0,0-.22-.4h0c-.27-.83-.71-.91-1.31-.3-.39,0-.36.32-.38.59l1,3.56c-.32.66-.63,1.32-1,2a2.32,2.32,0,0,1-1.67.28c-.51.36-1.39.38-1.24,1.35l.61.32h0c1.32,1.34,1.17,1.94-.62,2.39a4,4,0,0,0-.92.21c-.69.37-.8.81,0,1.25,0,.1,0,.2,0,.31h0c.84.53.76,1.08,0,1.63a4.71,4.71,0,0,1-.41.35,1.19,1.19,0,0,0-.34.26c-.34.35-.86.46-1.16.88s-.58.5-1,.67c-1,.42-1.51,1.11-1,2.22l.39.25a6,6,0,0,1,.22,1.17c-.12.1-.27.2-.44.32a2,2,0,0,0-.81,1.9l.07.16a.64.64,0,0,1-.13.18c-.11.11-.21.22-.32.32-.26.76-.54,1.51-.78,2.27-.39,1.27-1,2.28-2.56,2.13-.8-.08-1,.44-.9,1.14s.24,1.26.37,1.88c-.09.23-.19.46-.28.68a2.7,2.7,0,0,1-1.25,1.49c-.65.43-1.45.73-1.75,1.55a5.51,5.51,0,0,1-.91,1.46c-.41.84-1.32,1.32-1.64,2.23-1,1.11-2.31,2.12-1.75,3.95-.17,1.18-1.28,1.67-1.88,2.54-.06.26-.15.59,0,.78.78,1,.24,1.56-.52,2.23a6.2,6.2,0,0,0-1.67,2.52,1.92,1.92,0,0,0-.07.89,1.48,1.48,0,0,0,.2.42A6.39,6.39,0,0,1,84,62.8H83.7a4.92,4.92,0,0,1-3,3.35c-.14,0-.12.27-.07.43l.05,0-.33.54-.37,0c-.32.08-.34.33-.32.6-1.1,1.31-.75,3.63-2.92,4.21a.31.31,0,0,0-.14.26c.06,1.82-1.2,1.48-2.29,1.44a3.52,3.52,0,0,0-.49,1.57c.24.7.42,1.55-.45,1.76-1.68.42-2.18,1.73-2.76,3l-.89,1c-.34.22-.27.57-.22.86a3.67,3.67,0,0,1-1.74,3.95c-1.43.68-3.12,1-3.61,2.88a2.51,2.51,0,0,1-.52.76.25.25,0,0,1-.12,0c-1-.1-2-1-3.09-.4a2.82,2.82,0,0,0-.53.44,3.87,3.87,0,0,0-.52.47s0,.11,0,.15a2.07,2.07,0,0,0-1.38,1.69c-.31,1.34-1.14,1.66-2.37,1.45-1.4-.22-2.82-.4-4.24-.6l-1,.58a1.13,1.13,0,0,0-.32,0,12.52,12.52,0,0,1-2.74,1.51,2.83,2.83,0,0,0-.47.1,2.86,2.86,0,0,1-1.7-.32c-.08-.4-.47-.64-.63-1A6.26,6.26,0,0,0,42.62,92l-.36-.33a2.6,2.6,0,0,0-2.34-1.78A3,3,0,0,1,38.13,89a.46.46,0,0,0-.33,0c-.11-.32-.21-.63-.31-.93H37.4a1.62,1.62,0,0,1,0-.2,5.33,5.33,0,0,1,0-3.28,6.54,6.54,0,0,0,.18-3.17c0-.41-.22-.82-.59-.83-1.22,0-1.44-.84-1.61-1.76-.24-.41-.35-.87-.59-1.27l-.27-.25a8.94,8.94,0,0,1,.25-1.62,1.37,1.37,0,0,1,.2-.13.93.93,0,0,0,.21-.23A1.4,1.4,0,0,0,35,73.79l0,0a.47.47,0,0,0-.08-.51c-.29-.53-1.37-1,0-1.63.43-.15,1.08-.18,1-.81-.14-1.17.2-2.37-.05-3.47a2.46,2.46,0,0,1,.58-2.59c.75-.79,1-1.74-.14-2.58a2.84,2.84,0,0,1-.87-2,12.94,12.94,0,0,1,.79-6.25l.26-.33a.49.49,0,0,0-.2-.35,0,0,0,0,1,0,0,1.1,1.1,0,0,0,.36,0c.81-.39,1-.85.33-1.59C35.47,50,35.5,50,36.69,48.24a.59.59,0,0,0,.09-.3,5.54,5.54,0,0,0,0-.71,2.17,2.17,0,0,0,0-.36v0a.57.57,0,0,1,0-.13l0-.35c0-.82.18-1.48,1-1.77a2.22,2.22,0,0,1,.72,0c.66-.09,1.16-.4,1.17-1.11a15,15,0,0,1,.74-2.78c.34-1.9,1.72-3.48,1.63-5.49,0-.11,0-.21,0-.31L41.9,34c-1.1-.79-1.35-1.53-.22-2.62,1.44-1.4,2.31-3.05.93-5a.92.92,0,0,0-.35-.3L42,26l0,0a.75.75,0,0,0-.84-.26,1.91,1.91,0,0,1-.15.21v-.08a2.55,2.55,0,0,0,.64-1.24s0,0,0,0c.21,0,.34-.23.45-.46A2.75,2.75,0,0,0,41.67,22a2.46,2.46,0,0,0-.86-.54c-.17-.11-.35-.23-.52-.36a.87.87,0,0,1-.24-.43c-.77-.24-1-1.3-1.94-1.26a1.29,1.29,0,0,0,0-.28,1.82,1.82,0,0,0-.91-.82c-2-.75-4-1-5.24,1.31-.15.27-.46.43-.7.65a2.61,2.61,0,0,1-1.55.63,1.4,1.4,0,0,0-1.37.82,5.45,5.45,0,0,1-1,1.83c-.24.35-.55.68-.78,1A5.75,5.75,0,0,1,24,26.23c-.77.23-1.37.93-1.21,1.5.35,1.33-.25,2.41-.54,3.58h0c-2.25.68-4.41,3.75-4.2,6a1.68,1.68,0,0,1-.49,1.58,1.72,1.72,0,0,0-.28.37c-.94.95-.95,2.37-1.74,3.4-.15.3-.31.59-.45.89l-.84.72c-.26,1.45.21,3-.56,4.39,0,0,0,.07,0,.1l-.06,0-.12.82a2.5,2.5,0,0,0-.7,2.2,5.15,5.15,0,0,1,.06,2.07c-.73,2.85-.6,5.84-1.51,8.67a1.49,1.49,0,0,0,.34,1.5,2.58,2.58,0,0,1,.21,3.7h0a.61.61,0,0,0-.11.31c-.28,1,.13,2.16-.84,2.93a4.14,4.14,0,0,0-.66,2.41,10.28,10.28,0,0,0,.06,1.67,11.11,11.11,0,0,0,.21,1.52,1,1,0,0,0,0,.1,16.91,16.91,0,0,1,.57,4.85,7.8,7.8,0,0,0,.16,2.51,1.17,1.17,0,0,0,.2.71c0,.13.08.27.14.4,1.37,1.22,2.37,2.59,1.91,4.57a4.17,4.17,0,0,0,.59,1.47,9.2,9.2,0,0,1,2.26,5.25,5,5,0,0,0,0,1.17c0,.32,0,.64-.09,1a3.26,3.26,0,0,0,2.16,3.71c.59.24.93.65.72,1.23-.44,1.19.13,2.19.47,3.24l.36.34.91,1.31.33.3a.45.45,0,0,1,.12.06c.36,1.17,1.66,1.43,2.44,2.2a17.8,17.8,0,0,1,3.14,1.35l.42.63c1.16.61,1.78,1.85,2.85,2.58s1.47-.52,2.24-.68c.09.28.17.55.25.83a.55.55,0,0,0,.17.69l.06.24c.13.15.26.29.47.22,0,0,0,0,0,.05a.72.72,0,0,0,.07.48A9.12,9.12,0,0,0,36,118.9a9.59,9.59,0,0,0,7.66,1.35,3.06,3.06,0,0,1,2.05.21,5.09,5.09,0,0,0,2.35.38,9,9,0,0,1,4.38.74A2,2,0,0,0,55,121a2.64,2.64,0,0,1,2.36-1.1,4.08,4.08,0,0,0,2.39-.8,16.73,16.73,0,0,1,2.84-1.49c1-.3,2-1.31,3-1a8.78,8.78,0,0,0,4.11,0A2.56,2.56,0,0,0,71,115.43a3,3,0,0,1,1.76-1.51,6.11,6.11,0,0,0,2.44-1.72c.59-1.28,1.07-2.65,2.72-3,.51-.11.67-.64.82-1.09.5-.85.42-2,1.31-2.65a.63.63,0,0,0,.25-.64s0,0,0,0A9.38,9.38,0,0,1,83,102.58a4.65,4.65,0,0,0,2.54-3.14,11.54,11.54,0,0,1,3-4.27l.18.06C89.87,94.67,90,93.6,90,92.6A5.69,5.69,0,0,1,92.46,88c1.9-1.25,2.64-3.12,3.82-4.77a2.83,2.83,0,0,0,.54-2.11l.25-.16a.53.53,0,0,1,.26-.6A2.08,2.08,0,0,1,98.4,79c1.62-.64,1.71-1.85,1.7-3.36,0-.5,0-1,0-1.49a4.39,4.39,0,0,0,.21-2.23,3.86,3.86,0,0,1,1-1.77,4.15,4.15,0,0,0,1.54-1,1.38,1.38,0,0,0,.28-.4c.68-1.07,1.42-2.13,1.07-3.52a1.5,1.5,0,0,1-.13-1.6c0-.37.15-.72.17-1.1a.93.93,0,0,1-.05-.1l.39-.41a12.27,12.27,0,0,1,1.3-4.81c.55-1.24,1.82-1.25,2.86-1.64.35-.41.71-.82.41-1.24a2,2,0,0,0,0-.33c-.88-1.56-.86-1.54.78-2.59.43-.28.87-.65.67-1.31l0-.06a2.21,2.21,0,0,0,.35-.84,1.08,1.08,0,0,0,.36-.24,9.24,9.24,0,0,0,.65-1.78c.09-.56.88-1.1,0-1.69a.57.57,0,0,0-.34,0l-.12-.13a.64.64,0,0,0,.14-.36c-.29-1.79.48-3.37.92-5,0,0,0-.06,0-.09s.11,0,.17-.12c.52-1.68,1.74-3.23,1-5.17-.14-.37.13-.71.39-1a6.86,6.86,0,0,0,1.19-2.23c-.17-.6.33-1,.38-1.58a1.69,1.69,0,0,0,.41-1.63c-.2-1-.51-1.95-.78-2.92,0-1.29-.34-2.62.36-3.84h0a1.73,1.73,0,0,0,1.24-1.33c.77-1.87.35-4.08,1.63-5.81,1-1.79.24-3.42-.53-5-.27-.59-.74-1.23-.3-1.8,1.42-1.87.63-4.28,1.69-6.26M109.05,22.32h0ZM70.37,107.84s0,0,0-.06h0s0,0,0,0m44.46-77.13h0M30.26,114.8l.1,0v.06s-.06-.06-.1-.08"/><polygon class="cls-7" points="131.74 48.72 170.11 48.72 170.11 60.88 146.65 60.88 146.65 71.56 169.25 71.56 169.25 83.56 146.34 83.56 146.34 106.17 131.74 106.17 131.74 48.72"/><path class="cls-7" d="M172.94,94.71v-30h13.65V88.9c0,2.51,1,6.12,5.1,6.28a7.6,7.6,0,0,0,4.08-1.34,13.75,13.75,0,0,0,2.83-2V64.73h13.73v41.43h-13v-4.47a27.34,27.34,0,0,1-5.18,3.37,17.4,17.4,0,0,1-8.86,2.67c-8.47-.08-12.4-5.25-12.4-13"/><path class="cls-7" d="M257.06,76.34v29.82H243.25v-25c0-1.26.78-5.65-3.69-5.81a11.06,11.06,0,0,0-4.86,1.73,11.33,11.33,0,0,0-3.14,2.59v26.44H218.45V64.73h13.26V69a29,29,0,0,1,4.95-3.45,16.39,16.39,0,0,1,8.94-2.44c6.59.16,11.46,4.79,11.46,13.26"/><path class="cls-7" d="M286.72,106a17.65,17.65,0,0,1-7.22,1.8c-10.83.31-18.52-10-18.52-21.19,0-11.37,6.44-23.62,19.86-23.69a19.83,19.83,0,0,1,5.18.78,20.88,20.88,0,0,1,4.39,1.65l-.08-21.11,13.34-.08.08,62H291l.08-2.82a19.08,19.08,0,0,1-4.32,2.67m3.69-13.11V75.4a15.67,15.67,0,0,0-2.59-1.17,8.36,8.36,0,0,0-3.45-.71c-6.36,0-9.73,5.81-9.58,11.3.16,5.1,2.36,10.51,8.16,10.83a6.83,6.83,0,0,0,4.08-.87,15.33,15.33,0,0,0,3.38-1.88"/><path class="cls-7" d="M314.66,78.54l-5-8.24a37,37,0,0,1,5.81-3.37c5.26-2.44,8.79-3.77,14.6-3.77,8.63.08,13.34,4.71,13.34,11.46V93.14c0,1.88.23,4.31.94,4.78a2.56,2.56,0,0,0,2.59-.07l1.72,7.68a24.76,24.76,0,0,1-4.23,1.65,22.63,22.63,0,0,1-6.2,1.18c-4.24-.08-5.49-2-7.06-5a17.33,17.33,0,0,1-11.93,4.86c-6.67-.15-12.32-4.39-12.4-12.71,0-7.06,3.69-11.06,12.4-13.5a58.56,58.56,0,0,1,11.45-1.8c.24-1.34-.07-4.4-1.88-5.57-1.17-.79-5.65-.79-8.47.63-2.12,1.09-3.77,1.64-5.65,3.29m10,10.2c-2.27.79-4.79,2.75-4.79,5,0,2.9,2.6,4.47,5.26,4.47a7,7,0,0,0,5.26-2.51V88a12,12,0,0,0-5.73.78"/><path class="cls-7" d="M372.18,74.38a11.09,11.09,0,0,0-11.46,11.46,10.27,10.27,0,0,0,10.44,10.75,13.73,13.73,0,0,0,7.45-2.28l4.79,9.34a27.43,27.43,0,0,1-5.5,2.67,25.09,25.09,0,0,1-10.2,1.88c-11.77-.16-20.4-8.16-20.55-22.52-.08-13,9.33-22.36,21.81-22.52a27.28,27.28,0,0,1,9.42,1.57,25.11,25.11,0,0,1,4.47,1.88L378.77,76a15.08,15.08,0,0,0-6.59-1.65"/><path class="cls-7" d="M385.52,45.74h13.73v12.4H385.52Zm0,19h13.65v41.43H385.52Z"/><path class="cls-7" d="M447.9,85.29c.08,12.48-8.4,23.15-22.92,22.91-14.35-.16-22.59-10.28-22.59-22.59S410.71,62.93,424.67,63c14.83.08,23.15,9.81,23.23,22.29M424.83,97.14c6.75,0,9-5.88,9-11.53,0-5.5-1.8-11.23-8.87-11.15-6.43.08-8.47,6-8.47,11.38s2.43,11.3,8.32,11.3m-6.44-43.08L433,44.25l6.44,7.3-16.64,6.9Z"/><path class="cls-7" d="M490.12,76.34v29.82H476.31v-25c0-1.26.78-5.65-3.69-5.81a11.14,11.14,0,0,0-4.87,1.73,11.43,11.43,0,0,0-3.13,2.59v26.44H451.51V64.73h13.26V69a29.32,29.32,0,0,1,4.94-3.45,16.45,16.45,0,0,1,9-2.44c6.59.16,11.46,4.79,11.46,13.26"/><path class="cls-7" d="M516.72,48.72h14.43V84.35c0,5.49,1.58,11.22,8.8,11.22s9.1-5.34,9.1-10.75V48.72h14V85c0,12.8-6,22.76-22.91,22.76-18.28-.08-23.38-10.59-23.38-23.38Z"/><path class="cls-7" d="M607.67,76.34v29.82H593.85v-25c0-1.26.79-5.65-3.68-5.81a11.1,11.1,0,0,0-4.87,1.73,11.48,11.48,0,0,0-3.14,2.59v26.44h-13.1V64.73h13.26V69a29.32,29.32,0,0,1,4.94-3.45,16.42,16.42,0,0,1,9-2.44c6.59.16,11.46,4.79,11.46,13.26"/><path class="cls-7" d="M656.4,85.29c.07,12.48-8.4,23.15-22.92,22.91-14.36-.16-22.6-10.28-22.6-22.6S619.2,62.92,633.17,63c14.83.08,23.15,9.81,23.23,22.29M633.32,97.14c6.75,0,9-5.89,9-11.54,0-5.49-1.8-11.22-8.87-11.14-6.43.08-8.47,6-8.47,11.38s2.43,11.3,8.31,11.3"/></g></svg>